<svg id="Layer_1" data-name="Layer 1" xmlns="http://www.w3.org/2000/svg" viewBox="0 0 636.44 244.31">
    <defs>
        <style>.cls-1{fill:#ff4a24;}.cls-2{fill:#212121;}</style>
    </defs>
    <title>Detail List logo SVG</title>
    <path class="cls-1"
          d="M196,593.63a7.1,7.1,0,0,1,1.89.73,4.86,4.86,0,0,1,1.35,1.09,5.06,5.06,0,0,1,.89,1.25,7.85,7.85,0,0,1,.47,1.39,10.7,10.7,0,0,1,.13,1.32,8,8,0,0,1-.17,1.62,5.23,5.23,0,0,1-.49,1.29,3.9,3.9,0,0,1-.93,1.06,5.54,5.54,0,0,1-1.32.89,6.24,6.24,0,0,1,1.92,1.09,5.54,5.54,0,0,1,1.12,1.43,4.76,4.76,0,0,1,.5,1.58,9,9,0,0,1,.13,1.59,6.77,6.77,0,0,1-.63,3,6.11,6.11,0,0,1-1.78,2.21,7.57,7.57,0,0,1-2.78,1.39,13.55,13.55,0,0,1-3.63.46H181.78V593.33h11.64A10.08,10.08,0,0,1,196,593.63Zm-2.08,8.93a2.89,2.89,0,0,0,1.06-.5,2.25,2.25,0,0,0,.73-.83A3,3,0,0,0,196,600a2.93,2.93,0,0,0-.23-1.26,2,2,0,0,0-.69-.79,4,4,0,0,0-1-.4,6.93,6.93,0,0,0-1.22-.1h-6.25v5.26h6.12A8.4,8.4,0,0,0,193.91,602.56Zm.33,10.21a4,4,0,0,0,1.23-.6,2.86,2.86,0,0,0,.79-1,3.87,3.87,0,0,0,.26-1.42,3.7,3.7,0,0,0-.33-1.65,2.51,2.51,0,0,0-.89-1,3.3,3.3,0,0,0-1.26-.46,10,10,0,0,0-1.45-.1h-6.05V613h6.18A5.54,5.54,0,0,0,194.24,612.77Z"
          transform="translate(-181.78 -377.85)"/>
    <path class="cls-1"
          d="M220,599.45a6.31,6.31,0,0,0-.63-.89,4.24,4.24,0,0,0-1-.76,5.48,5.48,0,0,0-1.35-.57,7.7,7.7,0,0,0-1.85-.2,7.47,7.47,0,0,0-1.06.1,7.83,7.83,0,0,0-1.26.43,8.18,8.18,0,0,0-1.29.9,5.1,5.1,0,0,0-1.09,1.45,8.2,8.2,0,0,0-.82,2.21,13.78,13.78,0,0,0-.3,3.08,13.43,13.43,0,0,0,.4,3.44,7.71,7.71,0,0,0,1.15,2.57,5,5,0,0,0,1.85,1.59,5.26,5.26,0,0,0,2.42.56,6.07,6.07,0,0,0,2.54-.46,5.1,5.1,0,0,0,1.59-1.19,4.48,4.48,0,0,0,.86-1.45,12.61,12.61,0,0,0,.46-1.33h4.92a11.69,11.69,0,0,1-1.32,3.87,9.45,9.45,0,0,1-2.28,2.71,8.94,8.94,0,0,1-3,1.62,11.59,11.59,0,0,1-3.57.53,11.75,11.75,0,0,1-4.69-.89,9.32,9.32,0,0,1-3.43-2.48,11.43,11.43,0,0,1-2.12-4,18.42,18.42,0,0,1-.3-9.09,12.48,12.48,0,0,1,1.16-3.17,9.74,9.74,0,0,1,1.78-2.38A9.16,9.16,0,0,1,210,594a10.94,10.94,0,0,1,2.51-1,12.17,12.17,0,0,1,2.68-.3,13.74,13.74,0,0,1,3.44.39,11.14,11.14,0,0,1,2.64,1.1,7.8,7.8,0,0,1,1.91,1.55,10.29,10.29,0,0,1,1.33,1.78,12.7,12.7,0,0,1,.76,1.85,9.09,9.09,0,0,1,.29,1.72h-4.95l-.23-.79A7.48,7.48,0,0,0,220,599.45Z"
          transform="translate(-181.78 -377.85)"/>
    <path class="cls-1" d="M228.92,617.06V593.33h5v23.73Z" transform="translate(-181.78 -377.85)"/>
    <path class="cls-1"
          d="M258.37,602.85a2.83,2.83,0,0,0,1.09-.59,3.21,3.21,0,0,0,.73-1,3.54,3.54,0,0,0,.26-1.36,3.06,3.06,0,0,0-.39-1.62,2.78,2.78,0,0,0-1-1,4.42,4.42,0,0,0-1.39-.53,7.5,7.5,0,0,0-1.49-.13,6,6,0,0,0-1.72.2,3.77,3.77,0,0,0-1.25.53,3.07,3.07,0,0,0-.9.69,5.74,5.74,0,0,0-.53.79,5.42,5.42,0,0,0-.29.76,3.38,3.38,0,0,0-.07.57h-4.56a6.32,6.32,0,0,1,.13-1.26,5.6,5.6,0,0,1,.47-1.55,6.32,6.32,0,0,1,1-1.66,5.88,5.88,0,0,1,1.72-1.48,11,11,0,0,1,2.64-1.1,15.38,15.38,0,0,1,3.7-.39,11.8,11.8,0,0,1,3.94.59,8,8,0,0,1,2.67,1.56,6.09,6.09,0,0,1,1.56,2.11,5.82,5.82,0,0,1,.49,2.28,8.8,8.8,0,0,1-.13,1.32,4.53,4.53,0,0,1-.59,1.36,4.63,4.63,0,0,1-1.1,1.22,5.7,5.7,0,0,1-1.81.93v.06l.82.24a6.68,6.68,0,0,1,1,.39,8.32,8.32,0,0,1,1,.7,4.23,4.23,0,0,1,.83,1,5.88,5.88,0,0,1,.62,1.52,8.81,8.81,0,0,1,.24,2,6.82,6.82,0,0,1-.66,2.91,6.93,6.93,0,0,1-1.92,2.41,9.23,9.23,0,0,1-3.14,1.62,14.05,14.05,0,0,1-4.26.6,19.69,19.69,0,0,1-2.45-.13,15.3,15.3,0,0,1-2.28-.47,10.58,10.58,0,0,1-2.05-.92,5.84,5.84,0,0,1-1.62-1.39,5.32,5.32,0,0,1-1.06-2,8.19,8.19,0,0,1-.39-2.64h4.56a2.88,2.88,0,0,0,.3,1.22,2.64,2.64,0,0,0,.89,1.16,5,5,0,0,0,1.65.89,8.61,8.61,0,0,0,2.48.33,7.53,7.53,0,0,0,2.28-.33,4.55,4.55,0,0,0,1.55-.83,3.18,3.18,0,0,0,.89-1.19,4.16,4.16,0,0,0-.09-3.17,3.09,3.09,0,0,0-1-1,3.24,3.24,0,0,0-1.25-.46,9.28,9.28,0,0,0-1.26-.1H253v-3.6h4.1A4.49,4.49,0,0,0,258.37,602.85Z"
          transform="translate(-181.78 -377.85)"/>
    <path class="cls-1" d="M285.28,617.06l-1.52-4.89H275l-1.65,4.89h-5.22l8.49-23.73h5.65l8.4,23.73Zm-5.92-18.37-3,9.38h6.05l-2.94-9.38Z" transform="translate(-181.78 -377.85)"/>
    <path class="cls-1" d="M307.92,617.06V597.43H298.6v19.63h-5V593.33h19.24v23.73Z" transform="translate(-181.78 -377.85)"/>
    <path class="cls-1"
          d="M327.89,608c-.69.13-1.32.16-1.85.23l-1.32.09c-.4,0-.63,0-.8,0a12.82,12.82,0,0,1-3-.3,8,8,0,0,1-2.05-.76,3.82,3.82,0,0,1-1.26-1.16,4.94,4.94,0,0,1-.66-1.32,5.2,5.2,0,0,1-.29-1.42c0-.46,0-.89,0-1.32v-8.73h4.76v7.54a6.22,6.22,0,0,0,.23,1.88,2.22,2.22,0,0,0,.73,1.16,2.94,2.94,0,0,0,1.29.56,8.51,8.51,0,0,0,1.95.17c.3,0,.66,0,1.09,0s.79-.06,1.22-.13a11.82,11.82,0,0,0,1.19-.2c.4-.1.76-.16,1.06-.26V593.33h5v23.73h-5v-9.48C329.34,607.74,328.58,607.88,327.89,608Z"
          transform="translate(-181.78 -377.85)"/>
    <path class="cls-1" d="M355.06,617.06l-1.52-4.89h-8.76l-1.65,4.89h-5.22l8.49-23.73h5.65l8.4,23.73Zm-5.91-18.37-3,9.38h6l-2.94-9.38Z" transform="translate(-181.78 -377.85)"/>
    <path class="cls-1"
          d="M378.14,599.45a7.25,7.25,0,0,0-.63-.89,4.47,4.47,0,0,0-1-.76,5.74,5.74,0,0,0-1.36-.57,7.64,7.64,0,0,0-1.85-.2,7.47,7.47,0,0,0-1.06.1,8.08,8.08,0,0,0-1.25.43,7.75,7.75,0,0,0-1.29.9,4.92,4.92,0,0,0-1.09,1.45,7.88,7.88,0,0,0-.83,2.21,15.88,15.88,0,0,0,.1,6.52,7.71,7.71,0,0,0,1.16,2.57,4.86,4.86,0,0,0,1.85,1.59,5.22,5.22,0,0,0,2.41.56,6.12,6.12,0,0,0,2.55-.46,4.93,4.93,0,0,0,1.58-1.19,4.31,4.31,0,0,0,.86-1.45,12.93,12.93,0,0,0,.47-1.33h4.92a11.69,11.69,0,0,1-1.32,3.87,9.78,9.78,0,0,1-2.28,2.71,9,9,0,0,1-3,1.62,12.58,12.58,0,0,1-8.26-.36,9.36,9.36,0,0,1-3.44-2.48,11.43,11.43,0,0,1-2.12-4,16.72,16.72,0,0,1-.72-5.12,16.32,16.32,0,0,1,.43-4,12.47,12.47,0,0,1,1.15-3.17,9.78,9.78,0,0,1,1.79-2.38,9.11,9.11,0,0,1,2.21-1.65,11.12,11.12,0,0,1,2.51-1,12.3,12.3,0,0,1,2.68-.3,13.68,13.68,0,0,1,3.44.39,11.14,11.14,0,0,1,2.64,1.1,8.05,8.05,0,0,1,1.92,1.55,10.2,10.2,0,0,1,1.32,1.78,12.7,12.7,0,0,1,.76,1.85,8.42,8.42,0,0,1,.3,1.72h-5l-.23-.79A7.33,7.33,0,0,0,378.14,599.45Z"
          transform="translate(-181.78 -377.85)"/>
    <path class="cls-1" d="M397.57,597.43v19.63h-5V597.43h-7.23v-4.1h19.43v4.1Z" transform="translate(-181.78 -377.85)"/>
    <path class="cls-1" d="M412.35,609.49l9.39-16.16h5v23.73H422V601h-.06l-9.39,16.06h-5V593.33h4.76v16.16Z" transform="translate(-181.78 -377.85)"/>
    <path class="cls-1" d="M445.67,602.36v-9h5v23.73h-5V606.45h-9.32v10.61h-5V593.33h5v9Z" transform="translate(-181.78 -377.85)"/>
    <path class="cls-1" d="M460.08,609.49l9.39-16.16h5v23.73h-4.76V601h-.06l-9.39,16.06h-5V593.33H460v16.16Z" transform="translate(-181.78 -377.85)"/>
    <path class="cls-1"
          d="M489.24,610.92c.23-.7.46-1.46.66-2.28s.43-1.72.6-2.68.33-2.08.46-3.34.26-2.61.36-4.13.13-3.24.17-5.16h16.16V613H510v9.18h-4.29v-5.09h-15v5.09H486.4V613h2.08C488.74,612.3,489,611.61,489.24,610.92Zm6.58-11.84c0,.67-.07,1.39-.14,2.22s-.09,1.72-.19,2.68-.27,1.91-.43,2.9-.4,2-.66,3.08-.6,2-1,3h9.25V597.43h-6.84C495.82,597.86,495.82,598.42,495.82,599.08Z"
          transform="translate(-181.78 -377.85)"/>
    <path class="cls-1"
          d="M520.25,606.72c-.14,1.65-.27,3.11-.5,4.3a16.3,16.3,0,0,1-.83,3.1,6.26,6.26,0,0,1-1.22,2,3.72,3.72,0,0,1-1.58,1.06,5.34,5.34,0,0,1-2,.33,9.62,9.62,0,0,1-1.51-.1,6.08,6.08,0,0,1-1.36-.36v-4.56a2.13,2.13,0,0,0,.46.2,3,3,0,0,0,.5.1,2.42,2.42,0,0,0,.46.06.94.94,0,0,0,.3,0,3.2,3.2,0,0,0,.83-.14,1.65,1.65,0,0,0,.66-.52,3.82,3.82,0,0,0,.53-1.16,15.14,15.14,0,0,0,.39-2c.1-.86.17-1.88.23-3.11s.07-2.7.07-4.46v-8.13h16.56v23.73h-5V597.43h-7l0,3.57C520.38,603.18,520.35,605.07,520.25,606.72Z"
          transform="translate(-181.78 -377.85)"/>
    <path class="cls-1"
          d="M546.59,607.71a18.82,18.82,0,0,0-2.05.07,4,4,0,0,0-1.62.39,2.81,2.81,0,0,0-1.12,1.19,5.34,5.34,0,0,0-.56,2.28l-.17,2.25a9.78,9.78,0,0,1-.13,1.29,4.75,4.75,0,0,1-.16.86,2.21,2.21,0,0,1-.17.59c0,.17-.1.3-.13.43h-5.16l.4-.76c.06-.23.16-.46.23-.69s.1-.53.13-.83l.13-1.22.24-2.25a13.54,13.54,0,0,1,.29-1.88,4.32,4.32,0,0,1,.53-1.49,3.2,3.2,0,0,1,1-1.15A5.3,5.3,0,0,1,540,606a4.87,4.87,0,0,1-1-.43,3.78,3.78,0,0,1-1.16-.86,5.49,5.49,0,0,1-1.22-1.92,5.84,5.84,0,0,1-.46-2.44,8.64,8.64,0,0,1,.16-1.62,7.81,7.81,0,0,1,.53-1.42,6,6,0,0,1,.76-1.26,10,10,0,0,1,1-1,5.46,5.46,0,0,1,1.62-1,8.31,8.31,0,0,1,1.82-.49,9,9,0,0,1,2-.2c.66,0,1.29,0,1.95,0h9.91v23.73H551v-9.35Zm-2.18-10.18-.76.1a3.32,3.32,0,0,0-.63.13,4.5,4.5,0,0,0-.66.33,2.58,2.58,0,0,0-.59.6,2.53,2.53,0,0,0-.5.86,4.05,4.05,0,0,0-.17,1.19,3,3,0,0,0,.24,1.29,2.25,2.25,0,0,0,.56.85,2,2,0,0,0,.82.53,4.61,4.61,0,0,0,1,.3l.93.1H551V597.5h-6A4.22,4.22,0,0,1,544.41,597.53Z"
          transform="translate(-181.78 -377.85)"/>
    <path class="cls-1"
          d="M584.24,593.63a7.1,7.1,0,0,1,1.89.73,4.86,4.86,0,0,1,1.35,1.09,5.39,5.39,0,0,1,.9,1.25,8.69,8.69,0,0,1,.46,1.39,10.7,10.7,0,0,1,.13,1.32,8,8,0,0,1-.17,1.62,5.23,5.23,0,0,1-.49,1.29,4.08,4.08,0,0,1-.93,1.06,5.54,5.54,0,0,1-1.32.89,6.36,6.36,0,0,1,1.92,1.09,5.54,5.54,0,0,1,1.12,1.43,4.76,4.76,0,0,1,.5,1.58,9,9,0,0,1,.13,1.59,6.77,6.77,0,0,1-.63,3,6.11,6.11,0,0,1-1.78,2.21,7.57,7.57,0,0,1-2.78,1.39,13.57,13.57,0,0,1-3.64.46H570V593.33h11.64A10.13,10.13,0,0,1,584.24,593.63Zm-2.08,8.93a2.89,2.89,0,0,0,1.06-.5,2.14,2.14,0,0,0,.72-.83,2.84,2.84,0,0,0,.27-1.25,2.93,2.93,0,0,0-.23-1.26,2,2,0,0,0-.7-.79,3.81,3.81,0,0,0-1-.4,6.93,6.93,0,0,0-1.22-.1h-6.25v5.26h6.11A8.39,8.39,0,0,0,582.16,602.56Zm.33,10.21a3.86,3.86,0,0,0,1.22-.6,2.89,2.89,0,0,0,.8-1,3.87,3.87,0,0,0,.26-1.42,3.7,3.7,0,0,0-.33-1.65,2.51,2.51,0,0,0-.89-1,3.3,3.3,0,0,0-1.26-.46,10.1,10.1,0,0,0-1.45-.1h-6.05V613H581A5.54,5.54,0,0,0,582.49,612.77Z"
          transform="translate(-181.78 -377.85)"/>
    <path class="cls-1" d="M609,617.06l-1.52-4.89h-8.76l-1.65,4.89h-5.22l8.49-23.73H606l8.39,23.73Zm-5.91-18.37-3,9.38h6l-2.94-9.38Z" transform="translate(-181.78 -377.85)"/>
    <path class="cls-1" d="M628.37,613V593.33h4.57V613h6.44V593.33h4.56v23.73H617.37V593.33h4.56V613Z" transform="translate(-181.78 -377.85)"/>
    <path class="cls-1"
          d="M648.41,600.27a11.32,11.32,0,0,1,2.15-4,9.35,9.35,0,0,1,3.57-2.61,12.27,12.27,0,0,1,5-1,11.63,11.63,0,0,1,4.76,1,10.3,10.3,0,0,1,3.6,2.61,12.2,12.2,0,0,1,2.25,4,15.75,15.75,0,0,1,0,9.85,12.25,12.25,0,0,1-2.25,4,11,11,0,0,1-3.6,2.61,11.63,11.63,0,0,1-4.76,1,12.27,12.27,0,0,1-5-1,9.9,9.9,0,0,1-3.57-2.61,11.36,11.36,0,0,1-2.15-4,17.68,17.68,0,0,1,0-9.85Zm13.42,12.5a6.5,6.5,0,0,0,2-1.72,8.6,8.6,0,0,0,1.25-2.58,12.65,12.65,0,0,0,0-6.54,8.49,8.49,0,0,0-1.25-2.58,6,6,0,0,0-2-1.69,6.14,6.14,0,0,0-5.42,0,5.76,5.76,0,0,0-2,1.69,7.13,7.13,0,0,0-1.25,2.58,11.61,11.61,0,0,0,0,6.54,7.21,7.21,0,0,0,1.25,2.58,6.18,6.18,0,0,0,2,1.72,6.52,6.52,0,0,0,5.42,0Z"
          transform="translate(-181.78 -377.85)"/>
    <path class="cls-1" d="M679.65,597.43v19.63h-5V593.33h16v4.1Z" transform="translate(-181.78 -377.85)"/>
    <path class="cls-1"
          d="M693.23,600.27a11.48,11.48,0,0,1,2.15-4A9.43,9.43,0,0,1,699,593.7a12.3,12.3,0,0,1,5-1,11.63,11.63,0,0,1,4.76,1,10.3,10.3,0,0,1,3.6,2.61,12.2,12.2,0,0,1,2.25,4,15.75,15.75,0,0,1,0,9.85,12.25,12.25,0,0,1-2.25,4,11,11,0,0,1-3.6,2.61,11.63,11.63,0,0,1-4.76,1,12.3,12.3,0,0,1-5-1,10,10,0,0,1-3.57-2.61,11.53,11.53,0,0,1-2.15-4,17.92,17.92,0,0,1,0-9.85Zm13.42,12.5a6.39,6.39,0,0,0,2.05-1.72,8.62,8.62,0,0,0,1.26-2.58,12.65,12.65,0,0,0,0-6.54,8.5,8.5,0,0,0-1.26-2.58,5.94,5.94,0,0,0-2.05-1.69,6.14,6.14,0,0,0-5.42,0,5.81,5.81,0,0,0-2,1.69,7,7,0,0,0-1.26,2.58,11.85,11.85,0,0,0,0,6.54,7.07,7.07,0,0,0,1.26,2.58,6.25,6.25,0,0,0,2,1.72,6.52,6.52,0,0,0,5.42,0Z"
          transform="translate(-181.78 -377.85)"/>
    <path class="cls-1" d="M743.81,617.06l-1.52-4.89h-8.76l-1.65,4.89h-5.23l8.5-23.73h5.65l8.4,23.73Zm-5.92-18.37-3,9.38h6L738,598.69Z" transform="translate(-181.78 -377.85)"/>
    <path class="cls-1"
          d="M766.78,593.63a7.1,7.1,0,0,1,1.89.73,4.86,4.86,0,0,1,1.35,1.09,5.39,5.39,0,0,1,.9,1.25,8.69,8.69,0,0,1,.46,1.39,10.7,10.7,0,0,1,.13,1.32,8,8,0,0,1-.17,1.62,5.23,5.23,0,0,1-.49,1.29,4.08,4.08,0,0,1-.93,1.06,5.54,5.54,0,0,1-1.32.89,6.36,6.36,0,0,1,1.92,1.09,5.54,5.54,0,0,1,1.12,1.43,4.76,4.76,0,0,1,.5,1.58,9,9,0,0,1,.13,1.59,6.77,6.77,0,0,1-.63,3,6.11,6.11,0,0,1-1.78,2.21,7.57,7.57,0,0,1-2.78,1.39,13.57,13.57,0,0,1-3.64.46H752.57V593.33h11.64A10.13,10.13,0,0,1,766.78,593.63Zm-2.08,8.93a2.89,2.89,0,0,0,1.06-.5,2.14,2.14,0,0,0,.72-.83,2.84,2.84,0,0,0,.27-1.25,2.93,2.93,0,0,0-.23-1.26,2,2,0,0,0-.7-.79,3.81,3.81,0,0,0-1-.4,6.93,6.93,0,0,0-1.22-.1h-6.25v5.26h6.11A8.39,8.39,0,0,0,764.7,602.56Zm.33,10.21a3.86,3.86,0,0,0,1.22-.6,2.89,2.89,0,0,0,.8-1,3.87,3.87,0,0,0,.26-1.42,3.7,3.7,0,0,0-.33-1.65,2.51,2.51,0,0,0-.89-1,3.3,3.3,0,0,0-1.26-.46,10.1,10.1,0,0,0-1.45-.1h-6V613h6.18A5.54,5.54,0,0,0,765,612.77Z"
          transform="translate(-181.78 -377.85)"/>
    <path class="cls-1" d="M786.32,597.43v19.63h-5V597.43h-7.23v-4.1h19.43v4.1Z" transform="translate(-181.78 -377.85)"/>
    <path class="cls-1"
          d="M796.11,600.27a11.32,11.32,0,0,1,2.15-4,9.32,9.32,0,0,1,3.56-2.61,12.35,12.35,0,0,1,5-1,11.66,11.66,0,0,1,4.76,1,10.39,10.39,0,0,1,3.6,2.61,12,12,0,0,1,2.24,4,15.56,15.56,0,0,1,0,9.85,12,12,0,0,1-2.24,4,11.07,11.07,0,0,1-3.6,2.61,11.66,11.66,0,0,1-4.76,1,12.35,12.35,0,0,1-5-1,9.86,9.86,0,0,1-3.56-2.61,11.36,11.36,0,0,1-2.15-4,17.68,17.68,0,0,1,0-9.85Zm13.41,12.5a6.43,6.43,0,0,0,2.06-1.72,8.85,8.85,0,0,0,1.25-2.58,12.65,12.65,0,0,0,0-6.54,8.72,8.72,0,0,0-1.25-2.58,6,6,0,0,0-2.06-1.69,5.52,5.52,0,0,0-2.7-.63,5.6,5.6,0,0,0-2.72.63,5.81,5.81,0,0,0-2,1.69,7.31,7.31,0,0,0-1.26,2.58,11.85,11.85,0,0,0,0,6.54,7.4,7.4,0,0,0,1.26,2.58,6.25,6.25,0,0,0,2,1.72,6.08,6.08,0,0,0,2.72.59A6,6,0,0,0,809.52,612.77Z"
          transform="translate(-181.78 -377.85)"/>
    <path class="cls-2"
          d="M213.78,499.33q11.66,0,18.78,2.44a24.41,24.41,0,0,1,11.53,8,22.23,22.23,0,0,1,3.06,5,47.27,47.27,0,0,1,2.37,6.62,52.29,52.29,0,0,1,1.53,7.63,65.07,65.07,0,0,1,.5,8.2,68,68,0,0,1-.84,10.4,54.64,54.64,0,0,1-2.32,9.61,22.94,22.94,0,0,1-16.06,15.84,19,19,0,0,1-3.28.84c-1.13.19-2.39.36-3.79.51s-3,.25-4.92.29-4.07,0-6.56,0h-32V499.33ZM198,561.3h15.9a29.15,29.15,0,0,0,9.07-1.24,12.2,12.2,0,0,0,5.81-3.73,22.12,22.12,0,0,0,3.77-8.14,42.22,42.22,0,0,0,1.41-11.09,40,40,0,0,0-1.86-12.55q-1.86-5.65-5-8.25a13.24,13.24,0,0,0-5.3-2.72,32.64,32.64,0,0,0-7.89-.79H198Z"
          transform="translate(-181.78 -377.85)"/>
    <path class="cls-2"
          d="M319.4,512.79H298.48c-2.71,0-5,.1-7,.28a26.65,26.65,0,0,0-5,.91,11.43,11.43,0,0,0-3.56,1.7,13.82,13.82,0,0,0-2.71,2.65A10.7,10.7,0,0,0,278,522.8a23.69,23.69,0,0,0-.57,3.11c-.15,1.21-.3,2.75-.45,4.64h42.4V544H277a28,28,0,0,0,1.81,8.14,12.82,12.82,0,0,0,3.95,5.32,16.4,16.4,0,0,0,6.62,2.94,45.5,45.5,0,0,0,9.78.9H319.4v13.46H298.48c-4,0-7.52-.15-10.57-.45a48.8,48.8,0,0,1-8.08-1.41,23.26,23.26,0,0,1-6.17-2.61,24.78,24.78,0,0,1-4.92-4,33.31,33.31,0,0,1-7.4-12.66,53.44,53.44,0,0,1-2.55-17.08q0-20.24,12.78-31.1a29.88,29.88,0,0,1,4.07-2.88,19,19,0,0,1,4.47-1.87,35.62,35.62,0,0,1,5.37-1,61.35,61.35,0,0,1,6.79-.34H319.4Z"
          transform="translate(-181.78 -377.85)"/>
    <path class="cls-2" d="M325,512.79V499.33h65.13v13.46H365.2v62H349v-62Z" transform="translate(-181.78 -377.85)"/>
    <path class="cls-2" d="M412.81,499.33h18.44l31.21,75.43H443.69l-7.24-17.53H407.72l-7.23,17.53H381.6Zm-1.47,44.45h21.49l-10.74-26.35Z" transform="translate(-181.78 -377.85)"/>
    <path class="cls-2" d="M470.6,499.33h16.17v75.43H470.6Z" transform="translate(-181.78 -377.85)"/>
    <path class="cls-2"
          d="M517.42,499.33v42.3q.23,5,.39,7.74a25.39,25.39,0,0,0,.57,4.41,6.47,6.47,0,0,0,1,2.44,15.92,15.92,0,0,0,1.76,1.81,10.67,10.67,0,0,0,2.37,1.63,11.65,11.65,0,0,0,3.11,1,43.37,43.37,0,0,0,4.53.51c1.77.11,3.93.16,6.5.16H553v13.46H536c-2.64,0-4.82,0-6.56,0s-3.22-.1-4.46-.17a21.59,21.59,0,0,1-3.17-.4l-2.77-.62a24.21,24.21,0,0,1-10-5.32,21,21,0,0,1-6-9.16A31.53,31.53,0,0,1,501.7,552c-.3-3-.46-6.43-.46-10.35v-42.3Z"
          transform="translate(-181.78 -377.85)"/>
    <path class="cls-2"
          d="M606,499.33v42.3q.22,5,.39,7.74a27.51,27.51,0,0,0,.57,4.41,6.31,6.31,0,0,0,1,2.44,15.71,15.71,0,0,0,1.75,1.81,10.72,10.72,0,0,0,2.38,1.63,11.53,11.53,0,0,0,3.11,1,43.15,43.15,0,0,0,4.52.51q2.65.17,6.5.16h15.38v13.46H624.51q-4,0-6.56,0c-1.74,0-3.23-.1-4.47-.17a21.77,21.77,0,0,1-3.17-.4l-2.77-.62a24.23,24.23,0,0,1-9.95-5.32,21,21,0,0,1-6-9.16,32.11,32.11,0,0,1-1.37-7.06q-.45-4.47-.45-10.35v-42.3Z"
          transform="translate(-181.78 -377.85)"/>
    <path class="cls-2" d="M650.85,499.33H667v75.43H650.85Z" transform="translate(-181.78 -377.85)"/>
    <path class="cls-2"
          d="M682.06,561.3h34.38a44.06,44.06,0,0,0,7.13-.45,11.51,11.51,0,0,0,4.07-1.36,7.49,7.49,0,0,0,3.73-6.89,9,9,0,0,0-1.3-4.75,8.6,8.6,0,0,0-3.56-3.28,10.83,10.83,0,0,0-3.34-1,29.85,29.85,0,0,0-4.81-.34H704.45A45.64,45.64,0,0,1,693.09,542a18,18,0,0,1-7.52-3.78,20,20,0,0,1-5.26-7.3,23.19,23.19,0,0,1-1.86-9.22A24.07,24.07,0,0,1,682,508.66a17.89,17.89,0,0,1,9.62-7.74,22.19,22.19,0,0,1,2.73-.79,24.07,24.07,0,0,1,3.34-.51c1.25-.12,2.7-.19,4.36-.23s3.58-.06,5.77-.06h37.32v13.46h-33.7c-1.81,0-3.23,0-4.24.06s-1.87.07-2.55.11-1.24.1-1.7.17-1,.19-1.58.34a6,6,0,0,0-3.73,2.66,9.07,9.07,0,0,0-1.36,5,8.79,8.79,0,0,0,1.13,4.52,6.73,6.73,0,0,0,3.16,2.83,11.55,11.55,0,0,0,3.56,1,55.29,55.29,0,0,0,5.92.22h12.08a49.85,49.85,0,0,1,13.2,1.42,17.27,17.27,0,0,1,12.35,11.93,29,29,0,0,1,1.53,9.38,24.94,24.94,0,0,1-2.6,11.31,19.08,19.08,0,0,1-7,7.92,13.13,13.13,0,0,1-3.06,1.47,22.84,22.84,0,0,1-4,.9q-2.32.34-5.37.51c-2,.12-4.45.17-7.24.17H682.06Z"
          transform="translate(-181.78 -377.85)"/>
    <path class="cls-2" d="M753.08,512.79V499.33h65.14v13.46H793.34v62H777.17v-62Z" transform="translate(-181.78 -377.85)"/>
    <path class="cls-1"
          d="M707.71,428c-26.4,1.29-51,3.83-77.14,6.76-4.06-2.91-8.17-5.76-12.35-8.48A297.69,297.69,0,0,0,550,393.18a301.16,301.16,0,0,0-69.15-14.06,384.39,384.39,0,0,0-69.52.66A590.66,590.66,0,0,0,342,390.91c-23.05,5-45.87,11-68.57,17.33-12.43,3.48-24.8,7.15-37.19,10.75-6.19,1.8-12.39,3.59-18.6,5.33-4.62,1.29-9.38,2-13.92,3.64a23.6,23.6,0,0,0-8.9,5.38c-5.31,5.18-7.51,12.54-9.37,20.65a189.85,189.85,0,0,0-3.68,24.65S187,448,205,442s82.07-5.69,138.43-3c55.56,2.66,95.68-4.23,95.68-4.23-48.2,4.4-153.42-17.12-117.38-29.81,82.36-29,190.85-22.67,260,11.6,20.51,10.15,28.36,16.63,28.32,20.51-45.36,5.16-97.16,10.81-170.63,12.94,0,0,120.05,2.31,221.09-7.09,65.07-6.06,133.47.58,157.69,35.74C818.22,478.64,785.18,424.15,707.71,428Z"
          transform="translate(-181.78 -377.85)"/>
</svg>
